<?xml version="1.0" encoding="UTF-8" standalone="no"?>
<!DOCTYPE svg PUBLIC "-//W3C//DTD SVG 1.1//EN" "http://www.w3.org/Graphics/SVG/1.1/DTD/svg11.dtd">
<svg xmlns:xl="http://www.w3.org/1999/xlink" xmlns:dc="http://purl.org/dc/elements/1.1/" xmlns="http://www.w3.org/2000/svg" version="1.1" viewBox="0 0 700 700" width="700" height="700">
  <defs/>
  <g id="Canvas_1" stroke="none" stroke-opacity="1" fill="none" fill-opacity="1" stroke-dasharray="none">
    <title>Canvas 1</title>
    <rect fill="white" x="0" y="0" width="700" height="700"/>
    <g id="Canvas_1_Layer_1">
      <title>Layer 1</title>
      <g id="Group_2">
        <g id="Graphic_3">
          <path d="M 406.18 374.83 C 407.2972 370.3691 407.8988 365.705 407.8988 360.904 C 407.8988 345.732 401.9574 331.931 392.2968 321.677 L 409.3278 321.677 L 393.6088 296.478 L 409.3278 296.478 L 370.0778 233.56 C 370.35905 233.34125 370.652 233.14984 370.92936 232.92328 C 379.64416 225.79828 385.05836 215.70428 386.18336 204.50528 C 387.30446 193.30628 383.99976 182.33728 376.87476 173.62628 C 374.53496 170.76298 371.84356 168.22788 368.87086 166.08718 L 368.3826 166.76296 C 371.2928 168.86066 373.9334 171.34496 376.2264 174.15356 C 383.2108 182.69656 386.4534 193.44656 385.3514 204.42356 C 384.2498 215.40056 378.9412 225.29456 370.3984 232.27856 C 370.1523 232.48168 369.89447 232.66918 369.64447 232.8645 L 367.87497 230.0286 L 367.91403 229.9661 L 367.8359 229.9661 L 362.1718 220.888 L 362.2382 220.888 L 360.9257 218.8919 L 351.078 203.1069 L 351.08192 107.4119 L 357.66782 107.4119 L 350.37092 97.0599 L 343.59752 107.4119 L 349.41782 107.4119 L 349.4139 203.1109 L 339.9139 218.3409 L 339.9139 154.2199 L 343.6287 144.716 L 339.4998 134.146 L 335.3709 144.716 L 339.0818 154.2199 L 339.0818 219.6769 L 332.6599 229.9699 L 332.5857 229.9699 L 332.62476 230.0324 L 327.58566 238.1066 C 321.69896 235.5207 316.46466 231.5714 312.27666 226.4506 C 307.71806 220.8764 304.68686 214.1966 303.50716 207.1346 L 302.68685 207.27132 C 303.88995 214.47832 306.98375 221.29132 311.63215 226.97832 C 315.87825 232.16972 321.18295 236.18142 327.14015 238.82232 L 291.17115 296.47832 L 306.89015 296.47832 L 291.17115 321.67732 L 308.97215 321.67732 C 299.30805 331.93532 293.37015 345.7363 293.37015 360.9043 C 293.37015 367.2246 294.41315 373.3023 296.31545 378.9943 C 298.55765 402.8063 316.15945 422.2093 339.08545 427.1703 L 339.08545 455.4283 L 327.89445 466.9443 L 339.08545 478.5923 L 339.08545 509.1513 C 335.03465 509.5185 331.85105 512.8857 331.85105 517.0302 C 331.85105 521.1747 335.03465 524.5419 339.08545 524.9091 L 339.08545 598.2611 L 334.00735 598.2611 L 339.70655 606.9486 L 344.99955 598.2611 L 339.92145 598.2611 L 339.92145 524.9681 C 344.25735 524.9056 347.75345 521.3783 347.75345 517.0306 C 347.75345 512.679 344.25735 509.1556 339.92145 509.0931 L 339.92145 479.4641 L 349.42145 489.3547 L 349.42145 553.0427 C 347.35115 553.43335 345.78475 555.2458 345.78475 557.4294 C 345.78475 559.8982 347.78475 561.8982 350.25355 561.8982 C 352.72235 561.8982 354.72235 559.8982 354.72235 557.4294 C 354.72235 555.2458 353.15595 553.4333 351.08565 553.0427 L 351.08565 490.1557 L 372.98765 466.9997 L 356.46065 450.2457 L 361.47235 442.6129 L 351.08535 442.6129 L 351.08535 440.066 L 355.30805 428.211 C 377.60105 426.3087 396.11305 410.961 402.66305 390.324 C 403.21774 390.4451 403.78805 390.51933 404.37785 390.51933 C 408.76845 390.51933 412.32705 386.96073 412.32705 382.57013 C 412.32705 378.80453 409.70205 375.66393 406.18255 374.84353 Z M 297.73 373.8378 C 297.73 353.1898 309.628 335.2788 326.921 326.5678 L 339.085 345.7948 L 339.085 348.5956 L 328.03 378.8026 L 339.085 409.3616 L 339.085 415.2874 C 319.796 411.1936 304.183 397.0724 297.96 378.6544 C 297.81547 377.0646 297.72953 375.4591 297.72953 373.8341 Z M 320.21 314.4038 C 325.3389 311.0366 331.046 308.4936 337.159 306.9663 C 337.6746 307.4546 338.3426 307.771 339.0848 307.86084 L 339.0848 320.00884 L 323.7568 320.00884 Z M 322.7725 320.0093 L 313.0147 320.0093 C 315.0459 318.1382 317.2139 316.4116 319.5108 314.857 Z M 336.1165 304.8883 C 336.13994 305.09143 336.1829 305.28284 336.2415 305.47425 C 330.1477 307.05625 324.4525 309.63045 319.3235 312.99765 L 314.1946 304.88825 L 336.1206 304.88825 Z M 339.9212 246.6893 L 341.472 244.2049 L 349.4212 256.9509 L 349.4212 294.8099 L 339.9212 294.8099 Z M 339.08917 294.8103 L 309.90117 294.8103 L 339.08917 248.0253 Z M 340.29617 220.8923 L 349.42507 220.8923 L 349.42507 228.3103 L 348.38987 229.9705 L 339.92507 229.9705 L 339.92507 221.49 Z M 351.08917 206.2593 L 359.69857 220.0563 L 351.08917 220.0563 Z M 349.42117 206.2593 L 349.42117 220.0563 L 340.81177 220.0563 Z M 351.08917 256.9503 L 359.04227 244.2043 L 390.61227 294.8093 L 351.08927 294.8093 Z M 340.05417 242.2313 C 340.12058 242.23912 340.1831 242.23912 340.2495 242.24693 L 340.48776 242.62974 L 339.92135 243.5399 L 339.92135 242.2157 C 339.9643 242.2196 340.0073 242.22742 340.05416 242.23133 Z M 349.42137 296.4773 L 349.42137 303.6687 C 347.53857 303.70777 345.67917 303.83668 343.84717 304.05543 L 342.89405 304.05543 C 342.70264 302.49683 341.47995 301.27423 339.92135 301.08273 L 339.92135 296.47723 Z M 377.51937 320.0083 L 359.57437 320.0083 C 356.80877 319.55128 353.97667 319.30128 351.08997 319.27784 L 351.08997 305.31684 C 362.14497 305.4067 372.43397 308.73874 381.06697 314.40274 Z M 381.76547 314.856 C 384.05847 316.4107 386.22637 318.1372 388.26157 320.0083 L 378.50377 320.0083 Z M 339.08947 382.598 C 337.90197 382.79723 336.99567 383.8246 336.99567 385.0668 C 336.99567 386.309 337.9019 387.3363 339.08947 387.5356 L 339.08947 406.9146 L 328.92147 378.8056 L 339.08947 351.0246 Z M 339.9215 387.5355 C 341.109 387.3363 342.0153 386.3089 342.0153 385.0667 C 342.0153 383.8245 341.10905 382.7972 339.9215 382.5979 L 339.9215 348.7459 L 340.3004 347.7107 L 349.4215 362.1287 L 349.4215 416.4767 C 347.0192 416.42593 344.652 416.2345 342.3317 415.88296 L 339.9215 409.21886 Z M 339.9215 307.8595 C 341.1246 307.71107 342.1363 306.95326 342.6207 305.8907 C 344.8473 305.5665 347.1168 305.3868 349.4215 305.33602 L 349.4215 319.29702 C 346.8004 319.3556 344.2223 319.5939 341.7027 320.01186 L 339.9215 320.01186 Z M 341.8512 321.6755 L 348.941 321.6755 L 340.1012 345.8315 L 339.9254 345.55026 L 339.9254 322.02326 C 340.56214 321.89045 341.2066 321.78107 341.8551 321.6756 Z M 349.4215 322.781 L 349.4215 360.566 L 340.6598 346.722 L 349.4215 322.784 Z M 351.0895 322.73023 L 360.2301 347.33523 L 351.0895 361.78023 Z M 351.5856 321.67553 L 359.4294 321.67553 C 364.4255 322.51537 369.1911 324.04663 373.6134 326.18333 L 360.7894 346.44933 L 351.5863 321.67233 Z M 366.6836 321.67553 L 376.4648 321.67553 L 374.5078 324.77323 C 372 323.55053 369.3906 322.51153 366.6875 321.67553 Z M 362.5313 304.88653 L 387.0863 304.88653 L 381.9574 312.99593 C 376.1293 309.17173 369.5704 306.37873 362.5314 304.88653 Z M 334.5933 321.67553 C 331.8902 322.50756 329.2769 323.54663 326.773 324.77323 L 324.816 321.67553 L 334.5972 321.67553 Z M 339.0855 322.2185 L 339.0855 344.2345 L 327.6635 326.1835 C 331.2612 324.4413 335.0893 323.1093 339.0855 322.2147 Z M 339.9175 411.6675 L 341.3823 415.7222 C 340.89013 415.64017 340.40185 415.55423 339.9175 415.4605 Z M 342.0347 417.5269 L 345.273 426.4761 C 343.4605 426.2925 341.6714 426.01516 339.9175 425.6558 L 339.9175 417.1558 C 340.62064 417.2886 341.3237 417.4214 342.0347 417.5308 Z M 342.9644 417.6441 C 345.0816 417.92925 347.2339 418.0972 349.4175 418.1402 L 349.4175 426.7144 C 348.3316 426.69094 347.2534 426.63235 346.1831 426.5425 L 342.9643 417.6402 Z M 349.4175 428.3821 L 349.4175 435.4837 L 346.8042 428.261 C 347.6714 428.3196 348.5386 428.35864 349.4175 428.3782 Z M 351.0855 418.1631 C 353.4878 418.14356 355.8511 417.9678 358.1753 417.6631 L 355.0073 426.5537 C 353.7104 426.65916 352.4018 426.72556 351.0815 426.7373 L 351.0815 418.1631 Z M 351.0855 416.4951 L 351.0855 363.3431 L 360.5894 348.3231 L 371.9644 378.9521 L 358.8044 415.9051 C 356.281 416.2762 353.7067 416.4793 351.0856 416.49884 Z M 372.8005 379.0851 L 372.8513 378.94056 L 361.1483 347.43656 L 374.3513 326.56956 C 391.6443 335.28046 403.5393 353.19056 403.5393 373.83956 C 403.5393 374.1247 403.52367 374.40987 403.51585 374.69503 C 399.53145 375.1286 396.42205 378.46063 396.42205 382.55833 C 396.42205 384.85133 397.40643 386.90213 398.95725 388.35133 C 390.81665 402.62833 376.54325 412.96833 359.73825 415.74933 L 372.79725 379.08533 Z M 406.2345 360.9051 C 406.2345 364.6356 405.8595 368.2801 405.1564 371.8071 C 404.4064 351.4281 392.4334 333.8771 375.2464 325.1551 L 377.4456 321.6785 L 389.9966 321.6785 C 400.0236 331.7405 406.2346 345.6125 406.2346 360.9055 Z M 406.32435 320.0101 L 390.66835 320.0101 C 388.19955 317.5921 385.51995 315.389 382.65275 313.4476 L 388.59415 304.057 L 357.42615 304.057 C 355.34415 303.8109 353.22695 303.67027 351.08235 303.65074 L 351.08235 296.47884 L 391.64435 296.47884 Z M 406.32435 294.8111 L 392.56635 294.8111 L 360.01135 242.6311 L 362.83945 238.0959 C 364.88245 237.0881 366.85115 235.9123 368.73395 234.5607 L 406.31995 294.8067 Z M 368.30435 233.8701 C 366.81215 234.9404 365.26915 235.9131 363.66765 236.7685 L 366.89035 231.6044 Z M 365.87075 229.9678 L 352.11275 229.9678 L 351.07755 228.3076 L 351.07755 220.8896 L 360.20645 220.8896 Z M 339.07775 222.8233 L 339.07775 229.9678 L 334.62075 229.9678 Z M 333.60115 231.6045 L 339.07775 240.3857 L 339.07775 241.2724 C 335.63245 240.83882 332.30045 239.9912 329.14025 238.7568 L 333.60115 231.6084 Z M 294.17115 294.8115 L 328.69415 239.4755 C 331.99105 240.7802 335.47535 241.6708 339.08115 242.1122 L 339.08115 244.8778 L 307.92915 294.8118 Z M 308.85115 296.4795 L 339.07815 296.4795 L 339.07815 301.085 C 337.51955 301.2764 336.29695 302.4991 336.10545 304.0577 L 312.66745 304.0577 L 318.60885 313.4522 C 315.73775 315.3936 313.06195 317.5967 310.59325 320.0147 L 294.16725 320.0147 L 308.84725 296.4837 Z M 311.26525 321.6785 L 323.81625 321.6785 L 326.01545 325.1551 C 308.82745 333.8778 296.85545 351.4281 296.10545 371.8031 C 295.40233 368.2758 295.02735 364.6351 295.02735 360.9051 C 295.02735 345.6121 301.23825 331.7411 311.26535 321.6781 Z M 299.13625 385.9405 C 306.81595 401.6675 321.48425 413.3815 339.07725 416.9995 L 339.07725 425.4565 C 319.35025 421.0424 303.75325 405.5895 299.13625 385.9365 Z M 339.90925 442.7925 L 344.31945 450.0308 L 339.90925 454.5699 Z M 329.04625 466.9445 L 339.07725 456.6245 L 339.07725 477.3905 L 329.04625 466.9495 Z M 339.90925 478.2535 L 339.90925 455.7655 L 344.76865 450.7655 L 349.41315 458.3866 L 349.41315 488.1446 L 339.91315 478.254 Z M 371.81925 466.9995 L 351.07325 488.9335 L 351.07325 458.4295 L 355.98345 450.949 L 371.81945 467.004 Z M 339.90925 442.5975 L 339.90925 427.3475 C 341.86625 427.7381 343.86235 428.01546 345.88585 428.19124 L 349.40925 437.92954 L 349.40925 442.59754 Z M 351.07725 437.5663 L 351.07725 428.3983 C 352.19055 428.3905 353.29205 428.3397 354.38975 428.2655 Z M 355.91315 426.4763 L 359.09675 417.5388 C 376.72575 414.9138 391.74875 404.2188 400.29975 389.3508 C 400.55366 389.50313 400.80756 389.65157 401.0771 389.77267 C 394.8115 409.56567 377.2021 424.35467 355.9131 426.47567 Z" fill="black"/>
        </g>
      </g>
    </g>
  </g>
</svg>
